<svg width="605" height="130" viewBox="0 0 605 130" fill="none" xmlns="http://www.w3.org/2000/svg">
<rect x="40" y="50" width="366" height="30" fill="#006493"/>
<path d="M406.291 50L433.752 80H378.831L406.291 50Z" fill="#006493"/>
<rect x="565" y="80" width="118" height="30" transform="rotate(180 565 80)" fill="#1B98E0"/>
<path d="M446.709 80L419.248 50H474.169L446.709 80Z" fill="#1B98E0"/>
<rect x="40" y="4" width="33.6406" height="30" rx="3" fill="white"/>
<rect x="40.5" y="4.5" width="32.6406" height="29" rx="2.5" stroke="black" stroke-opacity="0.2"/>
<path d="M46.9688 22V14H47.9375V21.1406H51.6563V22H46.9688ZM53.0313 22V16H53.9531V22H53.0313ZM53.5 15C53.3203 15 53.1654 14.9388 53.0352 14.8164C52.9076 14.694 52.8438 14.5469 52.8438 14.375C52.8438 14.2031 52.9076 14.056 53.0352 13.9336C53.1654 13.8112 53.3203 13.75 53.5 13.75C53.6797 13.75 53.8333 13.8112 53.9609 13.9336C54.0911 14.056 54.1563 14.2031 54.1563 14.375C54.1563 14.5469 54.0911 14.694 53.9609 14.8164C53.8333 14.9388 53.6797 15 53.5 15ZM56.5635 18.3906V22H55.6416V16H56.5322V16.9375H56.6104C56.751 16.6328 56.9645 16.388 57.251 16.2031C57.5374 16.0156 57.9072 15.9219 58.3604 15.9219C58.7666 15.9219 59.1221 16.0052 59.4268 16.1719C59.7314 16.3359 59.9684 16.5859 60.1377 16.9219C60.307 17.2552 60.3916 17.6771 60.3916 18.1875V22H59.4697V18.25C59.4697 17.7786 59.3473 17.4115 59.1025 17.1484C58.8577 16.8828 58.5218 16.75 58.0947 16.75C57.8005 16.75 57.5374 16.8138 57.3057 16.9414C57.0765 17.069 56.8955 17.2552 56.7627 17.5C56.6299 17.7448 56.5635 18.0417 56.5635 18.3906ZM64.5918 22.125C64.0137 22.125 63.515 21.9974 63.0957 21.7422C62.679 21.4844 62.3574 21.125 62.1309 20.6641C61.9069 20.2005 61.7949 19.6615 61.7949 19.0469C61.7949 18.4323 61.9069 17.8906 62.1309 17.4219C62.3574 16.9505 62.6725 16.5833 63.0762 16.3203C63.4824 16.0547 63.9564 15.9219 64.498 15.9219C64.8105 15.9219 65.1191 15.974 65.4238 16.0781C65.7285 16.1823 66.0059 16.3516 66.2559 16.5859C66.5059 16.8177 66.7051 17.125 66.8535 17.5078C67.002 17.8906 67.0762 18.362 67.0762 18.9219V19.3125H62.4512V18.5156H66.1387C66.1387 18.1771 66.071 17.875 65.9355 17.6094C65.8027 17.3437 65.6126 17.1341 65.3652 16.9805C65.1204 16.8268 64.8314 16.75 64.498 16.75C64.1309 16.75 63.8132 16.8411 63.5449 17.0234C63.2793 17.2031 63.0749 17.4375 62.9316 17.7266C62.7884 18.0156 62.7168 18.3255 62.7168 18.6562V19.1875C62.7168 19.6406 62.7949 20.0247 62.9512 20.3398C63.11 20.6523 63.3301 20.8906 63.6113 21.0547C63.8926 21.2161 64.2194 21.2969 64.5918 21.2969C64.834 21.2969 65.0527 21.263 65.248 21.1953C65.446 21.125 65.6165 21.0208 65.7598 20.8828C65.903 20.7422 66.0137 20.5677 66.0918 20.3594L66.9824 20.6094C66.8887 20.9115 66.7311 21.1771 66.5098 21.4062C66.2884 21.6328 66.015 21.8099 65.6895 21.9375C65.3639 22.0625 64.998 22.125 64.5918 22.125Z" fill="black"/>
</svg>
